<svg xmlns="http://www.w3.org/2000/svg" viewBox="0 0 64 64">
  <defs>
    <linearGradient id="g" x1="10" y1="8" x2="54" y2="58" gradientUnits="userSpaceOnUse">
      <stop offset="0" stop-color="#fb7185"/>
      <stop offset="0.52" stop-color="#ec4899"/>
      <stop offset="1" stop-color="#8b5cf6"/>
    </linearGradient>
  </defs>
  <rect width="64" height="64" rx="16" fill="#fff1f2"/>
  <path d="M32 52s-2.2-1.7-5.2-4.1C15.8 39.2 10 33.2 10 24.9 10 18 15.1 13 21.6 13c3.8 0 7.4 1.9 9.7 5 2.3-3.1 5.9-5 9.7-5C47.9 13 54 18 54 24.9c0 8.3-5.8 14.3-16.8 23C34.2 50.3 32 52 32 52Z" fill="url(#g)"/>
  <path d="M24.4 25.6c0-2.1 1.5-3.8 3.7-3.8 1.5 0 2.8.8 3.7 2.1.9-1.3 2.2-2.1 3.7-2.1 2.2 0 3.7 1.7 3.7 3.8 0 2.9-2.2 5.2-7.4 9.2-5.2-4-7.4-6.3-7.4-9.2Z" fill="#ffffff" opacity="0.92"/>
</svg>
